<?xml version="1.0" standalone="no"?>
<!DOCTYPE svg PUBLIC "-//W3C//DTD SVG 20010904//EN"
 "http://www.w3.org/TR/2001/REC-SVG-20010904/DTD/svg10.dtd">
<svg version="1.0" xmlns="http://www.w3.org/2000/svg"
 width="606.000000pt" height="606.000000pt" viewBox="0 0 606.000000 606.000000"
 preserveAspectRatio="xMidYMid meet">
<metadata>
Created by potrace 1.11, written by Peter Selinger 2001-2013
</metadata>
<g transform="translate(0.000000,606.000000) scale(0.100000,-0.100000)"
fill="#000000" stroke="none">
<path d="M0 5158 c1 -778 3 -906 15 -922 19 -25 19 -108 0 -161 -11 -31 -15
-96 -15 -277 0 -229 1 -238 19 -238 19 0 89 84 84 100 -2 8 20 7 162 -4 141
-12 170 -16 173 -25 2 -5 12 -6 24 -3 16 4 19 2 13 -8 -6 -9 -4 -11 6 -4 17
10 22 10 236 12 l172 2 3 93 3 92 222 3 222 2 3 98 3 97 393 3 c390 2 394 2
425 25 18 12 39 27 48 32 9 6 62 42 118 80 56 39 115 77 131 86 16 9 45 28 64
43 19 14 38 26 42 26 4 0 26 16 50 35 23 19 47 35 53 35 6 0 11 5 11 10 0 6 5
10 11 10 6 0 28 14 49 30 21 17 41 30 45 30 4 0 26 15 48 33 42 33 51 39 107
70 38 22 55 16 127 -40 23 -18 44 -33 48 -33 4 0 24 -13 45 -30 21 -16 43 -30
49 -30 6 0 11 -3 11 -7 0 -5 23 -21 50 -38 28 -16 50 -32 50 -36 0 -4 8 -10
18 -13 21 -8 53 -27 72 -44 25 -21 181 -122 189 -122 4 0 16 -9 26 -20 10 -11
39 -32 64 -46 25 -15 62 -40 82 -56 l37 -28 396 0 396 0 0 -100 0 -100 225 0
225 0 0 -95 0 -95 150 0 c198 0 288 -21 379 -88 47 -35 131 -145 131 -172 0
-26 33 -79 48 -78 16 0 54 -3 225 -20 l77 -8 0 504 c0 475 -1 503 -17 498 -10
-2 -45 -10 -78 -16 -33 -6 -72 -20 -87 -31 -15 -10 -33 -19 -40 -19 -7 0 -26
-9 -43 -20 -44 -29 -79 -26 -105 10 -12 17 -19 30 -16 30 4 0 -7 19 -24 42
-16 22 -30 49 -30 59 0 10 -4 21 -10 24 -5 3 -10 21 -10 40 0 19 -4 44 -9 57
-12 33 7 164 30 205 10 18 19 40 19 48 0 21 -32 85 -42 85 -16 0 -58 55 -68
90 -5 19 -10 54 -10 77 0 24 -7 84 -16 135 -15 87 -15 150 1 210 6 21 2 31
-21 50 -15 13 -34 32 -43 42 -9 10 -26 28 -38 39 -36 33 -37 62 -2 134 28 57
31 71 25 120 -3 30 -16 74 -29 96 -18 35 -21 53 -17 102 7 78 40 119 111 134
27 6 53 10 57 9 9 -3 100 12 118 19 8 3 14 9 14 14 0 5 -1180 9 -2840 9
l-2840 0 0 -902z m3100 865 c14 -10 27 -15 29 -13 9 10 51 -85 51 -114 -1 -17
-7 -59 -14 -93 -16 -77 -10 -87 61 -102 29 -6 75 -22 102 -36 40 -21 53 -35
70 -75 23 -53 21 -81 -7 -137 -32 -64 -125 -85 -248 -57 -87 20 -104 20 -183
6 -59 -10 -100 -3 -142 25 -81 55 -99 69 -99 81 0 8 -15 12 -43 12 -146 0
-217 42 -217 127 0 69 18 107 64 137 70 46 130 30 209 -54 39 -42 53 -50 83
-50 40 0 89 22 97 44 3 8 -1 38 -9 68 -27 103 -13 172 45 221 39 33 112 37
151 10z m1018 -163 c17 -16 33 -43 37 -59 8 -36 -11 -103 -37 -130 -10 -11
-18 -25 -18 -31 0 -5 -15 -10 -34 -10 -28 0 -42 9 -80 51 -42 46 -46 56 -46
101 0 41 5 54 29 79 24 23 38 29 74 29 37 0 51 -6 75 -30z m-28 -330 c0 -5 -4
-10 -10 -10 -5 0 -10 5 -10 10 0 6 5 10 10 10 6 0 10 -4 10 -10z m432 -90 c50
-23 63 -104 23 -144 -51 -51 -142 -42 -166 17 -15 36 -13 62 7 91 29 42 88 57
136 36z m-2182 -19 c57 -16 88 -134 55 -206 -37 -77 -151 -70 -249 15 -69 61
-41 138 65 178 56 22 87 25 129 13z m737 -269 c53 -43 80 -135 50 -172 -27
-34 -62 -50 -113 -50 -47 0 -55 3 -83 35 -47 54 -40 117 19 175 36 35 91 40
127 12z m1066 -112 c31 -25 50 -82 37 -115 -12 -31 -48 -55 -84 -55 -69 0
-131 76 -106 132 25 55 106 75 153 38z m-1523 -35 c37 -25 66 -86 56 -116 -2
-8 -7 -26 -10 -41 -7 -32 -69 -78 -104 -78 -48 0 -94 31 -115 79 -19 44 -20
47 -2 96 24 68 41 84 94 84 32 1 55 -6 81 -24z"/>
<path d="M6032 5419 c-13 -5 -28 -6 -34 -3 -14 9 -48 -26 -48 -48 0 -12 4 -17
12 -12 7 5 9 2 5 -9 -5 -14 12 -29 36 -31 5 -1 14 -9 21 -18 26 -36 36 -20 36
57 0 41 -1 75 -2 74 -2 0 -14 -4 -26 -10z"/>
<path d="M2924 4430 c-62 -47 -64 -49 -149 -98 -28 -17 -57 -37 -64 -46 -7 -9
-18 -16 -23 -16 -6 0 -28 -15 -51 -32 -22 -18 -55 -42 -72 -53 -18 -11 -65
-42 -105 -70 -40 -27 -80 -54 -89 -60 -9 -5 -18 -12 -21 -15 -14 -14 -70 -50
-79 -50 -5 0 -11 -3 -13 -7 -3 -7 -38 -33 -114 -83 -12 -8 -49 -32 -81 -54
-32 -21 -83 -56 -115 -77 -31 -22 -61 -39 -67 -39 -6 0 -11 -3 -11 -7 0 -5
-17 -19 -38 -33 -101 -66 -179 -60 764 -59 467 0 843 3 837 6 -21 8 -15 22 17
38 39 20 73 19 101 -5 21 -17 22 -21 9 -30 -10 -6 92 -10 320 -10 l335 0 -65
41 c-36 23 -67 45 -70 48 -3 4 -12 11 -20 15 -30 14 -63 34 -69 43 -7 9 -68
53 -74 53 -4 0 -111 70 -169 112 -18 13 -40 28 -49 33 -9 6 -55 37 -103 70
-48 33 -98 67 -111 75 -12 8 -33 23 -46 33 -22 16 -191 129 -228 152 -48 29
-198 132 -209 143 -20 18 -35 15 -78 -18z"/>
<path d="M1460 3860 l0 -40 193 0 193 0 34 30 c19 16 40 29 47 30 6 0 15 5 18
10 4 7 -78 10 -239 10 l-246 0 0 -40z"/>
<path d="M4015 3888 c11 -6 33 -22 48 -37 l28 -26 205 -3 204 -3 0 40 0 41
-252 0 c-190 -1 -248 -3 -233 -12z"/>
<path d="M1000 3685 l0 -45 170 0 170 0 0 45 0 45 -170 0 -170 0 0 -45z"/>
<path d="M1467 3724 c-10 -10 -9 -72 1 -78 14 -9 116 11 120 23 2 6 9 11 15
11 7 0 23 9 37 20 l25 20 -55 0 c-30 1 -73 3 -96 6 -22 2 -43 1 -47 -2z"/>
<path d="M4290 3721 c0 -5 14 -18 30 -28 17 -9 30 -21 30 -25 0 -4 8 -8 18 -8
10 0 23 -5 29 -11 5 -5 30 -9 54 -7 l44 3 0 40 0 40 -102 3 c-63 2 -103 -1
-103 -7z"/>
<path d="M4613 3717 c-10 -17 -12 -50 -3 -62 5 -6 75 -10 172 -10 l163 0 0 40
0 40 -162 2 c-118 2 -164 -1 -170 -10z"/>
<path d="M584 3528 c-4 -6 -9 -29 -11 -50 -5 -58 -33 -136 -59 -168 -25 -29
-58 -40 -139 -43 -77 -3 -78 -7 -72 -220 5 -201 8 -220 37 -259 11 -15 20 -31
20 -36 0 -12 71 -82 83 -82 6 0 18 -6 26 -14 47 -41 56 -41 1476 -41 1151 0
1641 4 1513 13 -29 2 -36 20 -16 40 20 20 95 15 118 -8 25 -25 25 -30 -2 -32
-90 -6 162 -16 423 -17 335 -1 423 4 397 23 -28 21 -37 54 -48 167 -12 119 -6
316 12 407 14 77 49 113 116 120 31 3 57 0 65 -7 19 -15 103 -17 122 -1 8 7
15 19 15 27 0 7 6 16 14 19 7 3 22 21 32 40 10 19 25 34 34 35 32 2 67 -3 110
-17 24 -9 62 -17 85 -18 22 -2 53 -8 68 -15 16 -6 33 -11 39 -11 5 0 22 -8 36
-19 67 -47 115 -55 339 -55 117 -1 213 -1 213 0 0 0 -11 23 -25 51 -25 52 -88
121 -128 141 -89 43 -86 43 -1005 40 -848 -3 -874 -4 -888 -22 -50 -69 -159
-76 -184 -10 -9 22 -14 24 -72 23 -35 -1 -55 -3 -45 -6 9 -2 17 -9 17 -14 0
-5 10 -14 23 -20 13 -6 27 -19 32 -30 58 -115 86 -156 133 -196 35 -31 52 -53
52 -69 0 -18 -4 -22 -17 -17 -10 4 -14 2 -10 -4 4 -6 0 -16 -8 -23 -8 -7 -15
-18 -15 -24 0 -6 9 0 19 13 10 13 23 21 29 17 6 -4 20 -1 32 6 16 10 24 10 40
0 11 -6 29 -12 40 -12 32 0 50 -49 50 -140 0 -72 2 -80 19 -80 22 0 35 -28 25
-54 -5 -12 -20 -16 -70 -16 l-63 0 -3 103 -3 102 -33 3 c-49 5 -62 -11 -62
-79 0 -56 1 -59 25 -59 22 0 25 -4 25 -35 0 -41 -16 -48 -101 -43 l-54 3 -3
108 c-3 109 -14 139 -26 67 -4 -25 -11 -38 -17 -35 -7 5 -9 -18 -7 -67 l3 -73
-27 -3 c-28 -3 -32 -10 -28 -45 1 -10 -4 -16 -12 -15 -7 2 -12 -4 -10 -14 1
-9 -2 -19 -8 -23 -5 -3 -10 -15 -10 -25 0 -22 -48 -82 -60 -75 -4 3 -24 -2
-44 -10 -24 -10 -71 -15 -146 -15 -96 0 -118 3 -163 24 -29 13 -59 31 -66 40
-7 9 -19 16 -25 16 -6 0 -20 11 -30 25 -11 14 -29 25 -42 25 -12 0 -25 4 -28
9 -4 5 -14 8 -24 6 -9 -1 -28 2 -42 8 -28 12 -140 26 -135 17 2 -3 -10 -12
-26 -19 -17 -7 -47 -35 -67 -61 -45 -57 -82 -80 -130 -80 -41 1 -63 13 -81 47
-15 28 5 81 45 118 15 14 23 25 18 25 -5 0 -2 5 6 10 10 6 11 10 3 10 -8 0
-13 15 -13 39 0 33 4 40 23 43 21 3 22 8 25 112 2 94 1 108 -13 102 -8 -3 -22
-9 -30 -12 -12 -5 -15 3 -15 39 0 40 4 49 33 71 19 15 39 26 44 26 6 0 16 7
23 16 8 8 25 14 39 12 l26 -3 3 -182 2 -183 24 0 c20 0 22 -4 18 -26 -3 -19
-1 -25 7 -20 6 4 11 14 11 22 0 8 7 14 15 14 18 0 20 21 3 38 -15 15 -21 232
-6 232 5 0 8 6 5 14 -3 8 1 17 9 20 8 3 14 12 14 21 0 8 6 15 13 15 6 0 23 9
37 20 19 15 41 20 87 20 57 0 65 -3 107 -37 24 -21 45 -46 45 -55 1 -22 21
-24 21 -2 0 8 4 13 9 9 5 -3 16 3 23 14 9 13 40 24 103 36 102 20 145 34 145
46 0 5 6 9 13 9 19 0 35 33 53 109 10 46 23 76 35 85 19 13 18 14 -11 20 -60
11 -2559 6 -2566 -6z"/>
<path d="M105 3259 c-11 -7 -39 -30 -62 -52 l-43 -41 0 -1583 0 -1583 206 0
c113 0 203 4 200 8 -3 5 -33 17 -68 26 -35 10 -74 22 -88 27 -14 4 -45 11 -69
14 -63 10 -102 48 -108 108 -9 78 8 89 246 161 29 9 62 16 72 16 10 0 21 5 24
10 4 6 15 8 25 5 10 -3 25 1 33 10 9 8 29 15 45 15 60 0 122 13 122 25 0 28
35 27 57 -2 13 -15 23 -24 23 -19 0 6 16 -6 36 -25 53 -50 74 -101 74 -183 0
-38 5 -98 11 -133 l11 -63 430 0 c367 0 438 2 486 16 59 17 164 14 170 -6 3
-7 325 -10 1034 -10 l1031 0 -8 108 c-10 136 -10 137 12 167 29 40 75 46 311
44 206 -2 223 -1 332 26 262 62 565 22 556 -75 -3 -37 -10 -45 -74 -92 -31
-22 -65 -50 -75 -62 -28 -32 -67 -94 -67 -106 0 -7 117 -10 345 -10 377 0 343
-5 450 60 17 10 82 35 145 55 63 21 118 40 123 44 4 4 6 587 5 1297 l-3 1289
-22 -22 c-13 -13 -26 -23 -30 -23 -5 -1 -17 -15 -28 -32 -35 -56 -77 -72 -195
-76 -58 -2 -123 1 -145 6 -34 7 -46 5 -77 -15 -21 -13 -43 -23 -50 -23 -7 -1
-31 -9 -53 -20 -35 -17 -63 -19 -222 -20 l-183 0 0 -95 0 -95 -225 0 -225 0 0
-100 0 -100 -395 0 c-385 0 -396 -1 -418 -20 -12 -12 -42 -33 -67 -47 -25 -14
-61 -39 -81 -55 -20 -15 -41 -28 -47 -28 -5 0 -15 -7 -22 -15 -7 -8 -35 -29
-64 -45 -84 -50 -89 -54 -133 -87 -23 -18 -44 -33 -48 -33 -3 0 -30 -18 -60
-40 -30 -22 -57 -40 -60 -40 -3 0 -28 -16 -55 -35 -182 -128 -171 -123 -221
-90 -21 14 -43 25 -49 25 -5 0 -10 4 -10 9 0 6 -11 16 -24 23 -12 7 -76 49
-141 93 -65 44 -125 85 -134 90 -9 6 -32 21 -51 35 -19 14 -46 31 -60 38 -14
6 -52 32 -85 56 -33 25 -66 45 -72 45 -7 1 -13 5 -13 10 0 5 -8 12 -18 15 -9
3 -30 17 -46 31 -16 14 -34 25 -41 25 -7 0 -20 9 -30 20 -18 19 -31 20 -412
20 -307 0 -393 3 -394 13 -3 25 -6 73 -7 129 l-2 58 -222 2 -223 3 -3 93 -3
92 -179 0 c-98 0 -181 4 -184 9 -3 5 -21 12 -39 15 -40 8 -101 39 -135 72 -15
13 -30 24 -34 24 -5 0 -8 7 -8 15 0 7 -6 18 -12 22 -15 9 -33 37 -49 73 -6 14
-16 34 -22 45 -7 12 -14 104 -17 237 -3 119 -8 219 -12 223 -12 13 -73 15 -93
4z m5305 -1761 c11 -12 23 -19 26 -15 4 3 20 -3 36 -14 16 -12 34 -22 41 -23
7 -1 25 -14 41 -29 16 -15 32 -27 36 -27 11 0 50 -77 50 -99 0 -43 -27 -68
-75 -69 -24 -1 -47 3 -50 8 -4 6 -22 10 -41 10 -21 0 -37 6 -40 14 -3 8 -18
19 -34 24 -15 6 -34 22 -42 35 -7 14 -32 52 -55 85 -54 77 -58 104 -18 113 63
14 104 10 125 -13z m-4650 -831 c33 -16 37 -63 11 -114 -23 -46 -36 -58 -73
-67 -16 -3 -28 -11 -28 -16 0 -6 -7 -10 -15 -10 -8 0 -15 4 -15 9 0 14 -89 41
-136 41 -33 0 -49 6 -69 25 -14 14 -25 29 -25 33 1 20 70 85 105 97 51 18 211
19 245 2z m1098 7 c23 -4 42 -9 42 -13 0 -4 -24 -12 -52 -19 -29 -7 -63 -14
-76 -17 -12 -3 -58 -24 -103 -46 -94 -47 -134 -52 -161 -19 -20 24 -22 84 -3
100 5 4 26 10 45 12 64 7 264 8 308 2z m97 -14 c3 -5 -1 -10 -9 -10 -8 0 -18
5 -21 10 -3 6 1 10 9 10 8 0 18 -4 21 -10z m75 -36 c0 -2 -7 -4 -15 -4 -8 0
-15 4 -15 10 0 5 7 7 15 4 8 -4 15 -8 15 -10z m2720 6 c11 -7 6 -10 -20 -10
-26 0 -31 3 -20 10 8 5 17 10 20 10 3 0 12 -5 20 -10z m-3180 -315 c19 -23 3
-74 -26 -81 -13 -3 -24 -10 -24 -15 0 -5 -10 -9 -22 -9 -17 0 -19 3 -10 9 10
6 8 10 -8 14 -19 5 -21 10 -16 34 13 52 78 82 106 48z m1963 -5 c40 -6 82 -16
94 -22 49 -24 51 -130 3 -178 -31 -31 -118 -38 -185 -15 -27 9 -92 20 -144 24
-85 8 -97 11 -118 35 -38 44 -28 111 20 138 41 23 224 33 330 18z"/>
<path d="M2598 3203 c7 -3 16 -2 19 1 4 3 -2 6 -13 5 -11 0 -14 -3 -6 -6z"/>
<path d="M2622 3191 c-11 -7 -11 -9 0 -14 9 -3 15 1 15 9 0 8 -1 14 -1 14 -1
0 -7 -4 -14 -9z"/>
<path d="M4710 2629 c-23 -4 -3 -7 59 -8 52 0 92 1 90 3 -8 8 -114 12 -149 5z"/>
<path d="M1006 2522 c-3 -3 -6 -20 -6 -39 l0 -33 170 0 170 0 0 39 0 38 -164
1 c-91 0 -167 -3 -170 -6z"/>
<path d="M1465 2522 c-3 -3 -5 -20 -5 -39 l0 -33 100 0 c55 0 100 4 100 8 0 5
-12 15 -27 22 -16 8 -36 21 -46 29 -18 15 -111 24 -122 13z"/>
<path d="M1774 2518 c-5 -7 49 -48 63 -48 5 0 20 -11 33 -25 13 -14 29 -25 36
-25 6 0 18 -7 25 -16 7 -9 22 -20 34 -25 32 -14 59 -33 68 -46 4 -7 14 -13 21
-13 7 0 21 -9 31 -20 10 -11 22 -20 27 -20 5 0 33 -18 63 -40 30 -22 57 -40
61 -40 4 0 26 -16 50 -35 23 -19 46 -35 50 -35 4 0 38 -21 77 -47 38 -27 80
-55 92 -63 13 -8 62 -42 110 -75 48 -33 98 -66 111 -73 13 -7 24 -17 24 -23 0
-5 4 -9 9 -9 11 0 163 -99 171 -111 11 -16 60 -21 76 -8 9 7 25 18 35 24 10 5
59 38 108 73 50 34 92 62 95 62 10 0 131 91 134 101 2 5 8 9 13 9 5 0 32 16
59 35 27 19 54 35 58 35 5 0 17 9 27 20 10 11 22 20 28 20 5 0 26 14 47 30 21
17 42 30 47 30 6 0 18 9 28 20 10 11 21 20 25 20 11 0 185 117 199 134 8 9 17
16 22 16 5 0 32 16 59 35 27 19 53 35 56 35 4 0 26 16 50 35 23 19 45 35 49
35 3 0 13 7 21 15 14 13 13 15 -8 16 -122 5 -2381 2 -2384 -3z"/>
<path d="M4355 2499 c-71 -45 -67 -49 45 -49 l101 0 -3 36 c-3 36 -3 36 -52
38 -38 1 -58 -4 -91 -25z"/>
<path d="M4632 2520 c-13 -3 -23 -8 -23 -12 1 -5 1 -19 1 -33 l0 -25 170 0
170 0 0 35 c0 40 16 37 -170 39 -69 1 -135 -1 -148 -4z"/>
<path d="M1460 2305 l0 -45 245 0 c136 0 245 4 245 9 0 5 -15 16 -33 24 -18 9
-41 25 -52 37 -17 19 -29 20 -212 20 l-193 0 0 -45z"/>
<path d="M4070 2315 c-25 -19 -51 -35 -57 -35 -7 0 -13 -4 -13 -10 0 -6 90
-10 250 -10 l250 0 0 45 0 45 -192 -1 -193 0 -45 -34z"/>
</g>
</svg>
